<svg width="5121" height="4044" viewBox="0 0 5121 4044" fill="none" xmlns="http://www.w3.org/2000/svg">
<g clip-path="url(#clip0_344_357)">
<path fill-rule="evenodd" clip-rule="evenodd" d="M4530.88 2369.79C4547.74 2272.17 4557.63 2172.15 4560 2070.27C4545.48 2076.59 4530.7 2082.83 4515.66 2089C4110.5 2255.26 3492.17 2380.38 2850.21 2448.93C2739.39 2554.69 2630.91 2664.01 2523.4 2777.9C2564.69 2774.73 2606 2771.3 2647.29 2767.64C3350.75 2705.21 4037.21 2573.73 4463.42 2398.83C4486.8 2389.24 4509.29 2379.56 4530.88 2369.79ZM4495.31 2534.44C4049.25 2712.88 3357.2 2842.85 2659.42 2904.77C2568.69 2912.82 2477.69 2919.74 2386.95 2925.46C2141.66 3196.09 1898.45 3493.08 1640.91 3828.73C1913.1 3966.44 2220.67 4044 2546.28 4044C3482.36 4044 4269.31 3403.02 4495.31 2534.44ZM1334.66 2795.14C1374.3 2693.18 1414.98 2595.54 1456.53 2501.96C1187.06 2490.92 940.247 2465.08 734.5 2422.51C674.745 2410.15 617.505 2396.2 563.555 2380.45C583.004 2489.58 611.174 2595.67 647.315 2697.98C683.449 2707.5 721.837 2716.48 762.433 2724.88C927.546 2759.04 1121.78 2782.17 1334.66 2795.14ZM710.12 2854.54C718.198 2856.29 726.326 2858.01 734.5 2859.7C895.423 2892.99 1081.48 2916.05 1283.84 2929.81C1224.85 3090.9 1168.43 3262.28 1115.12 3444.87C947.458 3274.93 809.613 3075.31 710.12 2854.54ZM4463.42 1961.65C4496.79 1947.95 4528.35 1934.07 4558.05 1920.04C4546.62 1689.04 4496.57 1468.24 4414.25 1264.02C3869.95 1598.31 3426.12 1925.06 3020.87 2290.58C3587.45 2219.72 4113.26 2105.33 4463.42 1961.65ZM3065.84 425.251C2608.23 816.124 2009.89 1327.21 1518.6 2366.5C1233.42 2357.13 974.022 2331.47 762.433 2287.69C679.846 2270.61 606.393 2251.11 542.48 2229.53C535.55 2161.3 532 2092.06 532 2022C532 905.28 1433.82 0 2546.28 0C2834.27 0 3108.14 60.6686 3355.9 169.968C3268.65 252.015 3170.95 335.461 3065.84 425.251Z" fill="white"/>
<path d="M262.79 2060.29C-694.084 3156.28 6095.4 2577.2 4781.6 1701" stroke="white" stroke-width="339" stroke-linecap="round"/>
</g>
<defs>
<clipPath id="clip0_344_357">
<rect width="5121" height="4044" fill="white"/>
</clipPath>
</defs>
</svg>
